<?xml version="1.0" encoding="UTF-8"?>
<svg id="Layer_1" data-name="Layer 1" xmlns="http://www.w3.org/2000/svg" xmlns:xlink="http://www.w3.org/1999/xlink" viewBox="0 0 340.17 493">
  <defs>
    <style>
      .cls-1 {
        fill: #b33d96;
      }

      .cls-1, .cls-2, .cls-3, .cls-4, .cls-5, .cls-6 {
        fill-rule: evenodd;
      }

      .cls-7 {
        clip-path: url(#clippath-2);
      }

      .cls-2 {
        fill: #38a293;
      }

      .cls-3 {
        fill: #4492ab;
      }

      .cls-4 {
        fill: #4791b0;
      }

      .cls-8 {
        clip-path: url(#clippath-1);
      }

      .cls-9 {
        clip-path: url(#clippath-4);
      }

      .cls-10 {
        clip-path: url(#clippath);
      }

      .cls-11 {
        fill: none;
      }

      .cls-12 {
        clip-path: url(#clippath-3);
      }

      .cls-5 {
        fill: #606aed;
      }

      .cls-6 {
        fill: #2cb872;
      }
    </style>
    <clipPath id="clippath">
      <rect class="cls-11" width="246.5" height="493"/>
    </clipPath>
    <clipPath id="clippath-1">
      <rect class="cls-11" x="35.54" y="57.91" width="269.51" height="117.92"/>
    </clipPath>
    <clipPath id="clippath-2">
      <rect class="cls-11" x="265.6" y="235" width="74.57" height="59.16"/>
    </clipPath>
    <clipPath id="clippath-3">
      <rect class="cls-11" x="32.25" y="300.73" width="266.22" height="134.33"/>
    </clipPath>
    <clipPath id="clippath-4">
      <rect class="cls-11" y="175.84" width="91.41" height="62.45"/>
    </clipPath>
  </defs>
  <g class="cls-10">
    <path class="cls-1" d="M225.35,41.28c3.45-2.57,6.82-4.94,9.51-6.95,1.73-1.32,3.16-2.49,4.17-3.49,.59-.62,1.04-1.14,1.23-1.59,.92-2.17,1.04-4.07,.42-5.75-.62-1.69-1.91-3.15-3.74-4.45-1.51-1.09-2.85-1.35-3.95-1.23,.26,.64,.23,1.36-.31,1.76l-3.65,2.45-9.95,3.43c.08,.28,.14,.56,.19,.85,.45,1.81,1.96,5.21,1.96,5.21,0,0,.62,2.21,2.5,6.37,.39,.77,.95,1.98,1.59,3.4Zm-12.06,12.11c-.56,.64-1.13,1.28-1.63,1.93-3.36,4.35-4.79,8.11-4.88,11.55-.14,5.14,2.77,9.42,6.42,13.53,.95,1.05,1.94,2.12,2.98,3.18,.14-.26,.33-.5,.59-.71,.78-.55,.86-.91,.86-.91,0,0-.27-3.21-.64-5.78-.36-2.57-2.3-15.27-2.75-18.05-.19-1.49-.59-3.25-.95-4.75Zm-7.97,110.63c-.41,1.09-.76,2.35-.81,2.77-.12,.64,1.46,1.64,1.46,1.64l1.68-.62c-.99-1.64-1.58-2.17-2.34-3.8Zm21.04-51.14c-.65,.24-1.27,.48-3.43,.19-2.94-.42-.95,.72-2.21,1.26-1.27,.53-3.68,1.14-3.68,1.14,0,0-2.09,1.03-3.98,.72-1.87-.31-1.87-.19-3.67,.23-1.76,.41-2.21,1.78-4.4,2.2-2.21,.42-2.75-.31-4.74-1.25-1.99-.95-2.21,1.55-6.84,2.2-4.6,.64-18.47,.54-18.47,.54,0,0-.54,10.96-.31,12.13,.22,1.17,.53,2.43,1,4.38s1.35,2.35,4.1,6.51c2.77,4.15,8.17,24.14,9.28,28.15,1.13,4.02,3.43,6.95,3.43,6.95l1.31,.45,2.39-.26s.45-.69,1.07-2.45,.31-5.73,.62-7.96c.31-2.26,1.01-2.31,2.22-4.21,1.14-1.81,2.32-3.93,3.13-5.75-.55-2-.78-3.59-.62-5.1,.31-2.94,1.96-5.7,5.42-11.05,2.8-4.35,7.88-9.56,12.17-15.96,2.63-3.9,4.93-8.23,6.23-13.06Zm-14.53,78.85c-1.23,.48-2.49,.78-3.65,.83-3.7,.17-4.96-.09-6.78,.69s-7.74,1.35-7.74,1.35c0,0,.12,.89,0,2.14-.12,1.28,1.51,6.56,2.66,8.49,1.16,1.93,.62,3.5,.62,3.5,0,0,.87,.45,1.63,2.07,.78,1.62,.78,6.51,.85,9.04,.08,2.52-2.44,2.26-2.44,2.26,0,0,.13,.42-.09,2.44-.23,2-.14,3.59,.36,6.02,.37,1.84,.87,5.08,1.1,6.61,.58-.76,1.17-1.5,1.73-2.26,4.31-5.71,7.91-11.66,9.95-27.4,.85-6.56,1.44-11.7,1.8-15.79Zm-19.77,130.44c-7.54-9.06-11.94-19.19-11.94-19.19,0,0-3.2,7.92-4.6,13.75-1.44,5.8-1.94,6.87-3.54,9.69-1.59,2.81-.36,5.64-2.63,17.43-2.3,11.8-8.22,19.03-10.46,22.12-2.27,3.11-3.56,4.94-5.24,7.06-1.71,2.12-2.27,4.11-2.55,7.75-.28,3.66-8.47,18.09-9.76,20.21-.26,.42-.42,.81-.56,1.17,.78-.14,1.58-.24,2.32-.33,16.43-2,28.55-13.72,36.63-28.87,8.22-15.48,12.26-34.63,12.34-50.79Zm51.6,149.48h-.05s.05,.03,.05,0Zm-140.33-53.41c.56-1.95,1.32-4.4,2.32-7.47,4.61-14.29,8.42-23.56,9.63-26.99,1.17-3.43,2.13-7,6.64-18.24,4.52-11.25,9.54-21.04,9.21-23.02-.33-1.99,.33-2.16,1.49-6.28,1.14-4.13,1.99-3.47,2.66-6.79,.64-3.29,0-3.79-.83-10.23-.85-6.44,.48-5.44,1.99-11.41,1.48-5.94,1.31-3.97,.33-11.25-1.01-7.28-1.04-18.24-1.04-21.48s1.09-5.11,1.09-5.11c0,0-.31-.62-1.57-2.8-1.23-2.17-.62-3.4-2.5-6.36-1.85-2.93-5.43-4.49-7.15-10.99-1.71-6.51,1.44-27.1,1.44-27.1,0,0-1.6-1.48-.19-7.92,1.4-6.44,2.23-5.47,2.23-5.47,0,0,0-1.5-.17-3.09s.87-2.07,1.44-3.4c.55-1.35,.39-2.38,.31-4.13-.09-1.76,.24-2.62,.31-4.61,.08-1.98,0-2.7-1.04-4.9-1.04-2.23-.81-1.04-1.91-3.97-1.09-2.93-.08-2.84-2.38-5.71-2.34-2.85-16.78-25.65-18.26-27.44-1.49-1.78-4.35-4.6-7.5-10.99-3.13-6.39-3.98-16.15-3.53-22.49,.45-6.3,2.61-20.12,2.79-21.09,.13-.98,.69-1.53,1.68-3.83,.98-2.29,1.17-2.64,1.68-3.95,.5-1.31,1.4-1.81,2.52-2.71,1.13-.9,1.21-.98,1.21-.98l.33-3.21s-1.62-.42-4.1-1.64c-2.47-1.23-1.64-1.76-3.42-5.3s-1.66-3.68-4.52-7.34c-2.89-3.68-7.13-6-12.58-9.13-5.51-3.12-4.94-6.52-4.52-16.34,.42-9.8,2.46-11.8,5.55-16.43,3.06-4.63,5.25-6.53,6.37-7.73,1.09-1.21,1.09-2.82,5.35-9.58C98.96,2.57,104.29,.14,108.76,.33c4.48,.21,4.2,2.02,5.8,2.44,1.63,.41,2.58,.13,4.48,3.26,1.89,3.12,1.32,4.21,1.6,4.88s6,3.47,9.54,4.8c3.53,1.34,3.7,2.29,4.53,4.07,.85,1.78,1.07,2.57,1.75,3.68,.64,1.12,3.58,1.57,3.58,1.57,0,0,5.53,2.17,7.13,2.5,1.63,.31,3.06,1.54,2.91,2.71-.14,1.18-.92,1.9-1.82,2.82s-1.26,1.62-1.26,1.62c0,0,.23,1.03,.95,1.95,.76,.92,1.41,1.14,2.13,1.87,.73,.72,.35,1.62-.53,2.79s-1.23,1.76-1.23,1.76c0,0-.31,.41-.31,1.43s1.51,2.34,2.41,2.57c.89,.22,1.28,.17,2.18,.83s.78,1.84,.4,4.4c-.4,2.57-.06,2.68,1,4.8s1.13,3.52-1.45,5.8-8.31,1.93-8.92,2.16c-.62,.22-.95,.94-1.68,3.07-.73,2.12,.33,3.17,.62,5.64,.28,2.45-1.51,5.41-2.25,6.97s.23,.64,.85,.36,4.26-1.36,9.17-.69c4.93,.69,4.93,1.81,7.06,1.64s7.78-1.9,9.85-1.26c2.08,.64,2.72,2.85,2.72,2.85,0,0,1.3,.42,4.01,.5,2.75,.09,3.17,2.29,5.02,2.21,1.86-.09,3.88,.22,4.75,.41,.86,.23,2.89,1.16,5.15-.08,2.31-1.21,2,.41,3.5,.36,1.51-.08,2.81,0,2.81,0l3.08-.72,6.59,.13,1.51,.28s1.86,.42,2.64-.14c.78-.55,1-.77,1-.77l3.15,.36,2.36,.08,.13-1.39c-1.17-1.21-2.32-2.43-3.42-3.66-3.86-4.35-6.84-8.96-6.73-14.4,.08-3.62,1.54-7.66,5.12-12.27,.71-.89,1.44-1.76,2.25-2.62-.17-.67-.31-1.23-.39-1.57-.28-1.28-3.81-7.06-4.92-8.01-1.07-.95-4.26-.48-6.3-.39-2.05,.08-3.65,.36-4.97-.26-1.31-.6-4.15-4.02-4.6-4.52s-.53-1.67-.53-1.67c0,0-5.23,2.34-5.73,2.71-.5,.36-2.36,1.26-2.36,1.26,0,0-6.95,1.67-7.56,1.64s-.71,.03-1.18-.48-1.37-2.04-1.99-3.99c-.62-1.93-.59-3.99-.59-3.99,0,0,0-.45,.48-1.19,.48-.76,5.58-2.68,6.73-3.04,1.13-.36,3.09-.26,5.3-.69,2.25-.45,6.34-1.4,6.34-1.4,0,0-.23-2.12,.81-3.43,1.04-1.32,2.41-.51,2.98-1.26,.55-.76,.05-2.23,1.66-3.44,1.62-1.19,3.11,.54,3.11,.54,0,0,.19-.81,1.3-1.82,1.09-1,3.84-.36,3.84-.36,0,0,1.21-1.22,3-1.69,1.78-.45,2.38,1.22,4.53,2.22,1.23,.56,2.41,1.37,3.43,2.18,3.95-.81,10.21-2.18,11.08-2.45,1.26-.4,5.33-.17,5.33-.17,.08,0,.17,0,.24,.03,1.49-.4,3.45-.33,5.73,1.31,2.04,1.48,3.48,3.16,4.17,5.05,.71,1.93,.62,4.13-.45,6.65-.55,1.34-2.77,3.26-5.8,5.57-2.75,2.07-6.19,4.49-9.73,7.13,2.86,6.19,7.32,15.73,9.23,19.48,2.53,4.9,8.22,27.14,8.22,27.14,0,0,1.49,2.09,2.32,5.33,.85,3.25,.21,8.15-1.26,11.31-1.49,3.12-1.68,2.2-4.52,3.04-2.82,.83-4.1,.72-5.66,1.55s-2.21,.95-3.98,1.68c-1.43,.58-1.77,.55-2.47,.64-1.27,5.21-3.74,9.87-6.51,14.03-4.29,6.39-9.37,11.61-12.17,15.96-3.29,5.11-4.93,7.7-5.21,10.49-.12,1.04-.04,2.07,.22,3.3,.99-1.68,2.39-3.54,3.53-4.02,1.51-.62,1.82,.81,1.63,3.57-.19,2.73-2.35,5.64-3.15,6.69,1.01,2.47,1.6,2.85,2.81,4.83l.5-.19s2.11-.62,3.79-1.36c1.66-.76,2.86-.76,4.38-.06,1.51,.71,1.45,4.42,1.45,4.42,0,0,1.82,.5,2.84,2.21,1.01,1.69-.45,2.72-.45,2.72,0,0,.23,.37,.56,1.73,.31,1.37-.4,4.21-.4,4.21,0,0,.31,.31,.48,1.57s-1.51,3.07-3.3,4.85c-1.07,1.07-3.24,2.54-5.56,3.63-.33,4.24-.95,9.59-1.82,16.48-2.08,16.1-5.78,22.16-10.21,27.99-.78,1.04-1.57,2.07-2.41,3.13,.19,.77,.45,1.95,.45,2.79,0,1.36,1.23,3.09,1.3,4.44,.08,1.36,.72,1.08,2.16,2.93,1.43,1.86,6.98,11.8,11.77,22.62,4.8,10.86,22.71,47.05,22.71,47.05,0,0,3.88,9.54,3.88,14.01s-3.26,8.92-10.37,24.5c-7.13,15.55-18.01,45.28-18.51,46.87s-2.58,5.23-4.26,9.85c-1.68,4.63-.98,6.7-1.09,11.44-.12,4.75-2.44,7.23-3.22,8.04-.8,.78-.26,1.82-.26,3.16s-.09,2.29-.09,3.85,.62,1.43,.87,2.76c.23,1.34,.73,1.34,.95,2.29,.26,.95,.49,.48,1.6,1.73,1.09,1.26,.17,1.43,.39,2.29,.23,.87,1.27,1.66,3.57,5.06,2.3,3.38,6.09,6.5,7.86,8.2,1.76,1.69,3.42,2.09,7.65,3.09,4.26,1,7.34,.76,9.95,1.14s3.36,.5,5.78,2.76c1.75,1.62,1.91,1.93,1.89,1.95,.22,.06,.95,.26,1.26,1.01,.39,.89,.39,1.95-1.13,3.03-1.5,1.07-5.76,3.11-10.51,4.35-4.76,1.26-22.88-.17-24.92-.83-2.05-.67-3.2-1.22-11.34-4.12-8.1-2.9-8.22-2.85-8.22-2.85,0,0-.56,2.71-2.18,3.52-1.6,.81-20.95-2.45-22.11-3.71-1.14-1.26-.55-2.52-.48-5.11,.12-2.59,.48-2.79,.48-2.79,0,0-.48-2.52,.59-9.05,1.07-6.55,4.69-13.94,4.69-13.94l.59-3.9,.92-2.57,2.72-3.02s.76-2.57,0-5.11c-.76-2.57,.14-1.64,.9-4.52,.76-2.85,1.66-2.09,3.17-5.85,1.51-3.77,.62-6.92,2.58-18.06,1.96-11.13,13.6-39.84,15-42.5,1.44-2.64,1.23-2.12,2.67-5.1,1.43-2.99,1.07-1.76,1.93-4.94,.9-3.18,2.64-4.4,2.64-4.4,0,0,.9-2.13,.36-4.78-.53-2.66-.69-2.66-9.4-12.17-.22-.22-.41-.48-.64-.69-.31,16.05-4.4,34.72-12.5,49.98-8.27,15.51-20.72,27.45-37.6,29.52-.92,.12-1.89,.26-2.84,.42-.31,1.34-.59,3.17-1.73,6.8-1.99,6.19-6.98,27.06-6.98,27.06,0,0,.33,.98,.71,2.04,.36,1.05,.41,2.4,.41,2.4,0,0,1.09-.21,2.22,.5,1.12,.69-.14,1.76-.87,3.24-.76,1.48-1.45,4.1-1.45,4.52s.08,1.14,.33,2.12c.24,.95,.67,1.45,.98,2.59,.28,1.14,.56,.83,.92,2.18,.37,1.34,.62,1.26,.9,2.23,.26,.95,.76,1.05,1.49,2.29,.73,1.22-.05,1.03,.5,2.17,.56,1.14,3.06,3.68,3.81,4.49s.96,1.78,1.01,2.73c.03,.95-.42,.54,.45,1.37s8.24,4.1,11.02,5.35c2.81,1.26,6.2,2.66,6.84,3.97,.62,1.28,.37,3.09,.37,3.09l.69-.12s1.27,1.62,1.37,2.71c.09,1.09-.72,1.17-3.16,2.07-2.45,.89-10.6,3.15-18.6,3.35-7.96,.17-27.54-4.89-29.67-5.94-2.13-1.07-3.7-.54-3.7-.54l-12.39-2.12s-1.44-5.1-1.6-7.75c-.19-2.64,1.23-2.29,1.23-2.29,0,0,.19-1.43,.37-3.88,.17-2.45,.69-7.75,1.23-11.46,.53-3.72,1.23-3.89,1.59-7.4,.37-3.52,.17-4.94,.17-4.94l.37-3.52s-.37-1.07-.9-2.99c-.54-1.91,0-1.91,.73-4.4,.69-2.45,2.82-1.43,2.82-1.43,0,0,.73-1.43,.19-4.93-.36-2.47-.64-3.47,.8-8.74-4.97,4.25-8.73,9.13-10.32,14.51-3.15,10.58-3.93,22.44-6.09,31.31-1.49,6.14-3.65,10.85-7.55,12.92-4.85,2.57-8.95,2.43-15.03,1.31-5.88-1.08-13.71-3.09-26.02-4.29-24.51-2.38-36.87,3.43-36.87,3.43-.31,.14-.71,.03-.83-.31-.14-.31-.04-.67,.31-.83,0,0,12.56-5.94,37.51-3.54,12.4,1.19,20.25,3.21,26.16,4.3,5.75,1.05,9.62,1.25,14.23-1.21,3.61-1.93,5.55-6.39,6.92-12.11,2.16-8.9,2.94-20.76,6.09-31.36,1.75-5.92,6.2-11.41,12.03-16.07Z"/>
  </g>
  <g class="cls-8">
    <path class="cls-4" d="M269.78,59.25c14.03,3.9,23.17,7.65,28.15,11.32,2.82,2.08,4.29,4.11,4.45,6.15,.13,1.49-.45,2.97-1.63,4.44-1.26,1.59-3.17,3.17-5.67,4.78-13.33,8.49-42.96,17.17-78.97,27-54.17,14.79-122.76,32.17-172.28,55.36-2.32,1.09-7.46,3.79-7.75,3.93-.32,.14-.46,.53-.31,.86,.14,.32,.54,.46,.86,.31,.3-.14,5.43-2.84,7.75-3.92,49.45-23.16,117.97-40.52,172.07-55.3,36.18-9.89,65.93-18.63,79.32-27.15,2.66-1.69,4.67-3.38,6.01-5.06,1.4-1.78,2.04-3.57,1.9-5.37-.19-2.32-1.76-4.7-4.98-7.07-5.06-3.74-14.31-7.56-28.58-11.53-.35-.1-.71,.1-.8,.45-.1,.35,.1,.69,.45,.8Z"/>
  </g>
  <g class="cls-7">
    <path class="cls-4" d="M268.51,237.89c28.22,0,46.06,3.22,56.64,8.18,7.73,3.63,11.53,8.15,12.58,13.03,1.07,4.88-.6,10.07-3.65,14.94-3.99,6.39-10.58,12.97-20.26,19.01l.68,1.09c9.89-6.16,16.6-12.89,20.68-19.42,3.24-5.19,4.94-10.71,3.81-15.89s-5.08-10.08-13.3-13.93c-10.68-5.01-28.69-8.31-57.2-8.31v1.3Z"/>
  </g>
  <g class="cls-12">
    <path class="cls-4" d="M296.74,302.24c-60.97,28.86-198.39,60.47-245.67,91.74-6.16,4.08-10.8,8.15-13.58,12.21-1.91,2.79-2.95,5.56-3.03,8.33-.12,3.47,1.26,6.93,4.38,10.37,3.03,3.35,7.73,6.68,14.3,9.99,.32,.15,.72,.03,.87-.3,.17-.32,.04-.71-.28-.87-6.41-3.21-10.98-6.43-13.93-9.68-2.85-3.15-4.15-6.3-4.04-9.46,.1-3.2,1.6-6.39,4.29-9.6,2.76-3.3,6.74-6.6,11.75-9.91,47.23-31.25,184.57-62.82,245.5-91.65,.32-.15,.46-.54,.31-.86s-.54-.46-.86-.31Z"/>
  </g>
  <g class="cls-9">
    <path class="cls-4" d="M28.21,176.22c-1.64,.9-3.26,1.82-4.85,2.76-8.5,4.99-14.53,9.9-18.21,14.61-3.79,4.83-5.11,9.47-4.19,13.79,1.23,5.69,6.44,10.87,15.44,15.2,14.67,7.02,39.5,11.88,73.18,13.33l.06-1.28c-33.44-1.45-58.11-6.24-72.68-13.22-8.54-4.08-13.57-8.9-14.74-14.29-.86-3.99,.44-8.26,3.93-12.72,3.61-4.61,9.53-9.41,17.85-14.29,1.59-.94,3.2-1.85,4.83-2.75l-.63-1.13Z"/>
  </g>
  <path class="cls-2" d="M309.83,278.37l3.11,.03c.36,0,.65-.28,.65-.64s-.28-.65-.64-.65h-3.12c-.36-.03-.64,.27-.65,.63,0,.35,.3,.64,.65,.64Z"/>
  <path class="cls-5" d="M43.29,155.37l3.12,.03c.36,0,.65-.28,.65-.64s-.3-.65-.64-.65l-3.12-.03c-.36,0-.65,.3-.65,.64s.28,.65,.64,.65Z"/>
  <path class="cls-2" d="M317.61,278.42l3.12,.03c.36,0,.64-.28,.65-.64,0-.36-.3-.64-.65-.65h-3.11c-.36-.01-.65,.27-.65,.63s.28,.64,.64,.64Z"/>
  <path class="cls-5" d="M51.08,155.42l3.11,.03c.36,0,.65-.28,.65-.64s-.28-.65-.64-.65h-3.12c-.36-.03-.64,.27-.64,.63-.01,.35,.28,.64,.64,.64Z"/>
  <path class="cls-2" d="M315.89,283.21l.03-3.11c0-.36-.28-.65-.64-.65s-.65,.28-.65,.64l-.03,3.11c0,.36,.28,.65,.64,.65s.65-.28,.65-.64Z"/>
  <path class="cls-5" d="M49.36,160.21v-3.11c.03-.36-.27-.65-.63-.65s-.64,.28-.64,.64l-.03,3.11c0,.36,.28,.64,.64,.65,.36,0,.65-.3,.65-.64Z"/>
  <path class="cls-2" d="M315.94,275.44l.03-3.11c0-.36-.28-.65-.64-.65s-.65,.28-.65,.64l-.03,3.11c0,.36,.3,.65,.64,.65s.65-.3,.65-.64Z"/>
  <path class="cls-5" d="M49.42,152.43l.03-3.11c0-.35-.3-.64-.65-.64-.35-.01-.64,.28-.64,.64l-.03,3.11c0,.36,.28,.64,.64,.65,.36,0,.65-.3,.65-.65Z"/>
  <path class="cls-2" d="M23.58,188.35v10.87c0,.36,.28,.64,.64,.64s.65-.28,.65-.64v-10.87c0-.36-.3-.65-.65-.65s-.64,.3-.64,.65Z"/>
  <path class="cls-5" d="M289.78,314.61v10.87c0,.36,.28,.65,.64,.65s.65-.3,.65-.65v-10.87c0-.36-.3-.64-.65-.64s-.64,.28-.64,.64Z"/>
  <path class="cls-2" d="M20.17,194.44h8.13c.36,0,.64-.3,.64-.65s-.28-.64-.64-.64h-8.13c-.36,0-.65,.28-.65,.64s.3,.65,.65,.65Z"/>
  <path class="cls-5" d="M286.36,320.69h8.13c.36,0,.65-.3,.65-.65s-.3-.64-.65-.64h-8.13c-.36,0-.65,.3-.65,.64s.3,.65,.65,.65Z"/>
  <path class="cls-2" d="M22.88,196.06l3.62-3.63c.24-.24,.24-.65,0-.91-.26-.24-.67-.24-.92,0l-3.61,3.63c-.26,.24-.26,.65,0,.91s.67,.26,.91,0Z"/>
  <path class="cls-5" d="M289.09,322.31l3.61-3.62c.26-.26,.26-.67,0-.91-.26-.26-.67-.26-.92,0l-3.61,3.62c-.26,.26-.26,.67,0,.91,.26,.26,.67,.26,.92,0Z"/>
  <path class="cls-2" d="M26.5,195.15l-3.62-3.63c-.24-.24-.65-.24-.91,0-.26,.26-.26,.67,0,.91l3.61,3.63c.26,.26,.67,.26,.91,0,.26-.26,.26-.67,.01-.91Z"/>
  <path class="cls-5" d="M292.69,321.4l-3.61-3.62c-.26-.26-.67-.26-.92,0-.26,.24-.26,.65,0,.91l3.61,3.62c.26,.26,.67,.26,.92,0,.26-.24,.26-.65,0-.91Z"/>
  <path class="cls-3" d="M47.01,173.27l-.04,.03c.14-.18,.59-.77,.51-.91-.3-.55-.5,.59-.55,.89v.06s-.04-.01-.04-.01l-.62-.63v.09c-.03-.12,0-.23,.04-.35-.46,1.1-1.31,2.08-2.45,2.68-2.64,1.41-5.94,.41-7.36-2.23-1.41-2.63-.41-5.93,2.25-7.33,1.14-.62,2.41-.77,3.59-.54,.05,0,.09,.01,.13,.01v-.03c.3-.01,.54-.19,.62-.46,.05-.17,.03-.33-.05-.49h-.01v-.03h-.01s-.01-.03-.01-.03c-.04-.08-.1-.14-.18-.19-3.07-1.95-7.07-2.26-10.51-.42-5.06,2.7-6.98,8.97-4.29,14.02s8.99,6.96,14.06,4.26c3.43-1.82,5.42-5.32,5.49-8.95l-.56,.55Zm-7.32-9.46c-.53,.13-1.05,.33-1.55,.6-3.27,1.75-4.52,5.82-2.77,9.09s5.83,4.51,9.12,2.76c.5-.27,.95-.59,1.36-.95-.71,2.16-2.21,4.06-4.38,5.21-4.43,2.36-9.94,.68-12.3-3.74-2.36-4.4-.68-9.91,3.75-12.26,2.17-1.16,4.6-1.34,6.78-.72Z"/>
  <path class="cls-6" d="M298.75,290.46l-.6-.89h0s.59,.85,.59,.85v-.04l-.4-1.09c2.8-2.32,6.74-3.12,10.39-1.73,5.35,2.04,8.04,8.04,6,13.38-2.04,5.34-8.06,8.02-13.42,5.98-3.63-1.4-6.05-4.61-6.57-8.2,.03,.14,.08,.26,.17,.36l-.08-.15,.53,.31-.58-.83v-.03l.62,.89,.6-.42c.03-.09,.04-.19,.03-.31v.09c.01-.12-.01-.23-.08-.33,.6,1.04,1.57,1.9,2.77,2.36,2.81,1.07,5.96-.33,7.02-3.13,1.08-2.8-.33-5.93-3.15-7-1.21-.46-2.49-.46-3.63-.09-.06,.03-.14,.04-.21,.04Zm-1.96,10.6c.44,.32,.94,.58,1.46,.78,3.48,1.32,7.37-.41,8.7-3.88,1.32-3.45-.42-7.34-3.89-8.67-.54-.21-1.08-.33-1.63-.4,2.11-.9,4.53-1.01,6.82-.14,4.7,1.78,7.05,7.04,5.25,11.71-1.78,4.67-7.05,7.01-11.73,5.23-2.29-.87-4.02-2.57-4.98-4.63Zm-.81-2.22h.01s-.59,.41-.59,.41c.23-.01,.44-.13,.54-.33,.01-.01,.03-.04,.04-.08Z"/>
</svg>